<?xml version="1.0" standalone="no"?><!DOCTYPE svg PUBLIC "-//W3C//DTD SVG 1.1//EN" "http://www.w3.org/Graphics/SVG/1.1/DTD/svg11.dtd"><svg t="1535006611671" class="icon" style="" viewBox="0 0 1024 1024" version="1.1" xmlns="http://www.w3.org/2000/svg" p-id="1481" xmlns:xlink="http://www.w3.org/1999/xlink" width="16" height="16"><defs><style type="text/css"></style></defs><path d="M979.013729 317.153213C952.584294 255.859418 916.595277 202.438221 871.046678 157.451949c-45.5486-45.5486-98.969797-81.537617-160.263592-107.967051-61.293795-26.991763-126.523888-39.925316-196.252608-39.925315s-134.958814 13.495881-195.69028 39.925315S204.687534 111.90335 159.138935 157.451949c-46.110928 44.986271-82.099945 98.407468-107.967051 159.701264s-39.362987 126.523888-39.362988 196.252608 12.933553 134.958814 39.362988 195.69028 62.418451 114.152663 107.967051 159.701263c45.5486 45.5486 98.969797 81.537617 159.701263 107.967051s125.96156 39.362987 195.69028 39.362988 134.958814-12.933553 196.252608-39.362988 114.714992-62.418451 160.263592-107.967051c45.5486-45.5486 81.537617-98.969797 107.967051-159.701263s39.362987-125.96156 39.362987-195.69028c0-69.72872-13.495881-135.521142-39.362987-196.252608z m-420.059308 488.663371c-11.808896 11.808896-26.429434 17.994509-43.861615 17.994509s-32.615047-6.185612-43.861614-17.994509c-11.808896-11.808896-17.994509-26.429434-17.994509-43.299286 0-17.994509 6.185612-32.615047 17.994509-43.861614 11.808896-11.808896 26.429434-17.994509 43.861614-17.994509s32.615047 6.185612 43.861615 17.994509c11.808896 11.808896 17.994509 26.429434 17.994508 43.861614-0.562328 16.869852-6.185612 30.928062-17.994508 43.299286z m148.454695-421.746293c-1.686985 24.180121-9.559583 45.5486-24.180121 64.105437-14.620538 18.556837-30.928062 35.426689-48.92257 50.047226-17.994509 14.620538-33.177375 28.11642-47.797913 40.487645-14.05821 12.371225-20.80615 23.617792-20.243822 34.302031v24.180121c0.562328 12.371225-3.37397 23.055464-12.933553 32.615047-8.997254 9.559583-21.368479 14.620538-37.113674 15.182866-15.745195-0.562328-28.11642-5.623284-37.676002-14.620538-9.559583-8.997254-14.05821-18.556837-14.05821-28.678748l-1.124657-38.800659c0.562328-13.495881 4.498627-25.867106 11.808896-37.676002s15.745195-22.493136 26.429435-32.052718c10.684239-9.559583 21.930807-19.119165 33.177375-28.11642 11.808896-8.997254 23.055464-17.994509 33.177375-27.554091 10.684239-8.997254 19.119165-18.556837 25.867106-28.116419 6.747941-9.559583 10.121911-20.243822 10.121911-32.052719 1.686985-23.055464-7.310269-42.174629-25.304778-57.357496-17.994509-15.182867-42.736958-23.055464-73.10269-23.055464-15.745195 0-29.241076 3.37397-42.17463 11.246568s-23.055464 16.869852-32.052718 27.554091c-8.434926 10.684239-15.745195 22.493136-20.806151 33.739704-5.060956 11.808896-7.872597 21.930807-7.872597 29.803405 0 13.495881-5.060956 23.617792-15.182867 30.928061s-21.368479 10.684239-33.177375 10.121911c-12.371225-0.562328-23.055464-4.498627-33.739703-12.933553-10.684239-7.872597-16.307523-20.80615-16.869852-38.800659-0.562328-14.620538 2.811642-33.177375 8.997254-55.108182 6.747941-21.930807 18.556837-43.299286 35.426689-64.105437s38.800659-38.238331 66.35475-52.858868c27.554091-14.620538 61.856123-21.930807 102.906096-21.930808 33.177375 0 61.856123 5.060956 86.598572 14.620538 24.742449 9.559583 44.423943 23.055464 60.169138 39.362988 15.745195 16.869852 26.991763 36.551345 33.177375 59.044481 8.434926 25.304778 11.246568 50.609555 10.121911 76.476661z" p-id="1482"></path></svg>