<?xml version="1.0" encoding="UTF-8"?>
<svg width="116px" height="100px" viewBox="0 0 116 100" version="1.1" xmlns="http://www.w3.org/2000/svg" xmlns:xlink="http://www.w3.org/1999/xlink">
    <!-- Generator: Sketch 53.2 (72643) - https://sketchapp.com -->
    <title>org</title>
    <desc>Created with Sketch.</desc>
    <g id="Page-1" stroke="none" stroke-width="1">
        <g id="Artboard" transform="translate(-1506.000000, -267.000000)">
            <g id="org" transform="translate(1506.000000, 267.000000)">
                <path d="M103.182031,70.1906412 L109.910015,70.1906412 C113.260303,70.2219767 115.96854,72.9194841 116,76.2564991 L116,93.8763721 C115.96818,97.2357761 113.224931,99.9423794 109.852015,99.9422299 L90.654061,99.9422299 C87.2811445,99.9423794 84.5378958,97.2357761 84.5060758,93.8763721 L84.5060758,76.2564991 C84.5060758,72.8745128 87.2586225,70.1328712 90.654061,70.1328712 L97.0340457,70.1328712 L97.0340457,56.5569035 L61.0741322,56.5569035 L61.0741322,70.1906412 L67.6281164,70.1906412 C69.2634109,70.1750534 70.8362843,70.8152127 71.9926651,71.9670121 C73.1490459,73.1188115 73.7917515,74.6854535 73.7761017,76.3142692 L73.7761017,93.9341421 C73.7761017,97.2842229 71.0495223,100 67.6861163,100 L48.3721628,100 C44.9992463,100.00015 42.2559975,97.2935462 42.2241776,93.9341421 L42.2241776,76.2564991 C42.2241776,72.8745128 44.9767243,70.1328712 48.3721628,70.1328712 L54.926147,70.1328712 L54.926147,56.5569035 L19.0242334,56.5569035 L19.0242334,70.1906412 L25.4042181,70.1906412 C28.7676241,70.1906412 31.4942034,72.9064183 31.4942034,76.2564991 L31.4942034,93.8763721 C31.4942771,95.4951971 30.8446999,97.0468917 29.690031,98.186136 C28.5353621,99.3253803 26.9714085,99.9576473 25.3462182,99.9422299 L6.14826442,99.9422299 C2.77534798,99.9423794 0.0320992395,97.2357761 0.000279253032,93.8763721 L0.000279253032,76.2564991 C-0.0153705609,74.6276834 0.627335058,73.0610415 1.78371581,71.9092421 C2.94009656,70.7574427 4.51296996,70.1172834 6.14826442,70.1328712 L12.8182484,70.1328712 L12.8182484,53.4950896 C12.8182484,51.8040964 14.1945218,50.4332756 15.892241,50.4332756 L54.926147,50.4332756 L54.926147,37.4350087 L30.6822054,37.4350087 C28.9132156,37.4350087 27.2166791,36.7350644 25.9658144,35.4891554 C24.7149498,34.2432465 24.0122214,32.5534313 24.0122214,30.79145 L24.0122214,6.64355859 C24.0122214,4.88157729 24.7149498,3.19176215 25.9658145,1.94585323 C27.2166791,0.699944305 28.9132157,-2.59000472e-08 30.6822054,0 L85.3180739,0 C89.0018043,9.6225296e-16 91.9880578,2.9744225 91.9880578,6.64355859 L91.9880578,30.79145 C91.9880578,32.5534313 91.2853294,34.2432465 90.0344647,35.4891554 C88.7836001,36.7350643 87.0870636,37.4350087 85.3180739,37.4350087 L61.0741322,37.4350087 L61.0741322,50.4332756 L100.050038,50.4332756 C100.865312,50.4332756 101.647194,50.7558586 102.223679,51.3300601 C102.800165,51.9042616 103.124031,52.683046 103.124031,53.4950896 L103.182031,70.1906412 Z M30.0001396,18.4865085 C30.0001396,22.9047865 33.5818616,26.4865085 38.0001396,26.4865085 C42.4184176,26.4865085 46.0001396,22.9047865 46.0001396,18.4865085 C46.0001396,16.3647765 45.1572849,14.3299452 43.6569938,12.8296542 C42.1567028,11.3293632 40.1218715,10.4865085 38.0001396,10.4865085 C33.5818616,10.4865085 30.0001396,14.0682305 30.0001396,18.4865085 Z M50.0001396,18.4865085 C50.0001396,22.9047865 53.5818616,26.4865085 58.0001396,26.4865085 C62.4184176,26.4865085 66.0001396,22.9047865 66.0001396,18.4865085 C66.0001396,14.0682305 62.4184176,10.4865085 58.0001396,10.4865085 C53.5818616,10.4865085 50.0001396,14.0682305 50.0001396,18.4865085 Z M70.6093283,15.4249687 C69.3710983,18.4143201 70.0555344,21.8552125 72.3434849,24.1431631 C74.6314354,26.4311136 78.0723277,27.1155497 81.0616792,25.8773198 C84.0510306,24.6390899 86.0001396,21.7220422 86.0001396,18.4863915 C86.0001396,14.0681782 82.41847,10.4865085 78.0002566,10.4865085 C74.7646059,10.4865084 71.8475582,12.4356173 70.6093283,15.4249687 Z" id="Shape"></path>
            </g>
        </g>
    </g>
</svg>
